<svg width="12" height="15" viewBox="0 0 12 15" fill="none" xmlns="http://www.w3.org/2000/svg">
<path d="M5.87123 0.247437C5.25822 0.247437 4.84956 0.70753 4.84956 1.38672V9.33977L4.91086 10.9245L3.63036 9.33247L2.07742 7.66736C1.89352 7.47018 1.65513 7.32412 1.34863 7.32412C0.796925 7.32412 0.374634 7.755 0.374634 8.38307C0.374634 8.66789 0.483612 8.9381 0.694758 9.1718L5.11519 13.9188C5.3059 14.1233 5.59197 14.2474 5.87123 14.2474C6.15049 14.2474 6.43655 14.1233 6.62727 13.9188L11.0545 9.1718C11.2657 8.9381 11.3746 8.66789 11.3746 8.38307C11.3746 7.755 10.9523 7.32412 10.4006 7.32412C10.0941 7.32412 9.85575 7.47018 9.66504 7.66736L8.1121 9.33247L6.8316 10.9245L6.89971 9.33977V1.38672C6.89971 0.70753 6.48423 0.247437 5.87123 0.247437Z" fill="#8E8E93"/>
</svg>
